<svg width="2476" height="315" viewBox="0 0 2476 315" fill="none" xmlns="http://www.w3.org/2000/svg">
<rect width="2476" height="315" fill="white"/>
<g clip-path="url(#clip0_1927_319)">
<path d="M2476 2V315H1541L1699.65 40.6438C1712.54 14.8687 1738.35 2 1768.43 2H2476Z" fill="#00353E"/>
<g clip-path="url(#clip1_1927_319)">
<path d="M1847.28 90C1846.28 90.1069 1845.32 90.3564 1844.39 90.8909C1842.21 92.1382 1840.96 94.4545 1840.96 96.8065C1840.96 97.84 1841.21 98.8735 1841.68 99.8713L1875.32 158.244L1886.23 139.392L1903.96 108.78L1893.12 90H1847.28Z" fill="#7ABA48"/>
<path d="M1893.12 90L1921.72 139.392H1943.45L1966.31 99.7287C1966.74 98.8735 1966.99 97.8756 1966.99 96.8065C1966.99 93.1716 1964.14 90.2138 1960.53 90H1893.12Z" fill="#0DB09E"/>
<path d="M1941.84 139.392H1886.27L1875.35 158.244L1898.36 197.836C1898.93 198.655 1899.64 199.368 1900.54 199.903C1901.61 200.508 1902.78 200.829 1903.96 200.829C1906.17 200.829 1908.38 199.689 1909.67 197.729L1943.41 139.392H1941.81H1941.84Z" fill="#BDD138"/>
<path d="M2004.44 138.216C1995.06 134.688 1991.1 133.262 1991.1 129.521C1991.1 126.242 1994.42 124.033 2000.48 124.033C2007.87 124.033 2015.22 126.777 2016.57 127.561C2019.39 119.97 2021 107.854 2000.73 107.854C1982.04 107.854 1970.91 117.974 1970.91 131.089C1970.91 142.065 1979.3 148.907 1991.85 153.397C2000.2 156.284 2003.52 158.279 2003.52 161.878C2003.52 165.478 2000.24 167.901 1993.39 167.901C1985.93 167.901 1978.65 165.62 1974.16 163.304L1970.41 179.697C1974.59 181.906 1983.29 184.222 1992.21 184.222C2013.9 184.222 2023.81 173.318 2023.81 160.56C2023.81 150.225 2017.89 143.169 2004.55 138.216H2004.44ZM2033.37 108.994V183.082H2053.28V121.075C2053.28 111.774 2048.21 108.994 2033.37 108.994ZM2118.63 165.585C2115.52 166.796 2110.14 167.687 2105.39 167.687C2091.73 167.687 2083.71 159.313 2083.71 145.913C2083.71 130.839 2093.59 124.14 2104.93 124.14C2110.85 124.14 2116.99 125.886 2118.66 126.777C2122.19 118.758 2121.34 107.854 2104.04 107.854C2081.92 107.854 2062.77 121.146 2062.77 147.196C2062.77 166.903 2075 184.151 2102.75 184.151C2111.56 184.151 2118.59 182.512 2121.34 181.086L2118.59 165.585H2118.63ZM2240.23 168.578H2240.02C2230.46 168.578 2224.5 159.313 2224.64 146.02C2224.64 133.156 2230.46 123.462 2240.02 123.462C2249.58 123.462 2255.43 133.156 2255.43 145.913C2255.43 159.348 2249.82 168.578 2240.23 168.578ZM2276.47 145.236C2276.47 125.458 2264.38 107.747 2240.48 107.747H2240.05C2217.54 107.996 2203.63 125.066 2203.63 146.448C2203.63 167.83 2216.29 184.294 2239.3 184.294H2240.05C2262.45 184.009 2276.47 168.899 2276.47 145.236ZM2310.43 169.326C2309.57 169.433 2308.75 169.469 2307.9 169.469C2305.36 169.469 2303.58 169.469 2302.15 169.255V151.544H2306.9C2308.15 151.544 2309.32 151.58 2310.47 151.722C2316.14 152.435 2320.13 155.001 2320.13 160.204C2320.13 165.941 2315.89 168.685 2310.47 169.326H2310.43ZM2302.12 123.142C2303.44 122.928 2305.33 122.678 2308.61 122.678C2309.22 122.678 2309.82 122.714 2310.39 122.785C2315.92 123.213 2318.63 125.85 2318.63 129.734C2318.63 133.619 2315.92 136.256 2310.39 137.147C2309.07 137.325 2307.68 137.432 2306.08 137.432H2302.12V123.142ZM2326.48 143.027V142.813C2335.19 139.499 2338.57 133.476 2338.57 127.311C2338.57 120.041 2334.4 114.767 2328.55 112.023C2323.66 109.6 2318.35 108.673 2310.39 108.46C2308.93 108.424 2307.47 108.424 2305.86 108.424C2296.73 108.424 2286.96 109.172 2282.43 110.063V182.654C2286.39 183.438 2292.99 183.973 2302.05 183.973C2305.04 183.973 2307.86 183.902 2310.43 183.688C2321.31 182.94 2328.19 180.73 2332.65 177.38C2337.61 173.638 2341 168.115 2341 161.094C2341 152.292 2335.51 145.593 2326.48 143.062V143.027ZM2161 168.578H2160.79C2151.19 168.578 2145.27 159.313 2145.38 146.02C2145.38 133.156 2151.23 123.462 2160.79 123.462C2170.35 123.462 2176.2 133.156 2176.2 145.913C2176.2 159.348 2170.56 168.578 2161 168.578ZM2161.22 107.747H2160.79C2138.25 107.996 2124.37 125.066 2124.37 146.448C2124.37 167.83 2137.03 184.294 2160.04 184.294H2160.83C2183.23 184.009 2197.25 168.899 2197.25 145.236C2197.25 125.458 2185.15 107.747 2161.25 107.747H2161.22Z" fill="white"/>
<path d="M2180.3 229.98C2178.55 230.799 2175.7 231.334 2172.95 231.334C2164.82 231.334 2160.04 226.131 2160.04 218.006C2160.04 209.132 2165.46 204.393 2172.99 204.393C2176.06 204.393 2178.48 205.034 2180.23 205.818L2181.73 200.437C2180.37 199.724 2177.16 198.798 2172.74 198.798C2161.43 198.798 2152.98 206.139 2152.98 218.327C2152.98 229.588 2160.11 236.929 2171.85 236.929C2176.31 236.929 2179.8 236.109 2181.41 235.289L2180.3 229.98ZM2186.72 236.394H2193.47V222.567C2193.47 221.783 2193.57 221.071 2193.68 220.5C2194.29 217.471 2196.46 215.404 2199.71 215.404C2200.53 215.404 2201.13 215.511 2201.67 215.618V209.239C2201.13 209.132 2200.74 209.061 2200.06 209.061C2197.21 209.061 2194.07 210.985 2192.75 214.763H2192.54L2192.32 209.667H2186.44C2186.62 212.09 2186.65 214.656 2186.65 218.291V236.394H2186.72ZM2228.46 224.919C2228.57 224.313 2228.67 223.316 2228.67 222.068C2228.67 216.188 2225.82 209.061 2217.15 209.061C2208.48 209.061 2204.1 216.01 2204.1 223.423C2204.1 231.583 2209.2 236.929 2217.86 236.929C2221.72 236.929 2224.89 236.216 2227.21 235.289L2226.21 230.621C2224.18 231.405 2221.93 231.833 2218.79 231.833C2214.51 231.833 2210.73 229.766 2210.55 224.919H2228.46ZM2210.55 220.215C2210.84 217.471 2212.58 213.694 2216.76 213.694C2221.25 213.694 2222.36 217.756 2222.29 220.215H2210.55ZM2252 197.444V212.589H2251.89C2250.68 210.629 2248.04 209.061 2244.37 209.061C2237.95 209.061 2232.35 214.371 2232.38 223.316C2232.38 231.548 2237.45 236.964 2243.8 236.964C2247.68 236.964 2250.93 235.111 2252.54 232.153H2252.64L2252.93 236.394H2258.96C2258.85 234.577 2258.74 231.619 2258.74 228.875V197.444H2252ZM2252 224.812C2252 225.525 2251.93 226.167 2251.79 226.772C2251.15 229.695 2248.72 231.548 2245.97 231.548C2241.69 231.548 2239.27 227.984 2239.27 223.102C2239.27 218.22 2241.69 214.264 2246.01 214.264C2249.08 214.264 2251.22 216.402 2251.82 219.039C2251.93 219.574 2252 220.251 2252 220.785V224.777V224.812ZM2272.8 236.394V209.667H2265.98V236.394H2272.8ZM2269.41 198.548C2267.16 198.548 2265.63 200.152 2265.63 202.219C2265.63 204.286 2267.13 205.854 2269.37 205.854C2271.62 205.854 2273.23 204.25 2273.23 202.219C2273.15 200.152 2271.73 198.548 2269.44 198.548H2269.41ZM2278.4 235.076C2280.36 236.18 2283.28 236.929 2286.53 236.929C2293.63 236.929 2297.41 233.401 2297.41 228.59C2297.34 224.634 2295.09 222.175 2290.28 220.429C2286.89 219.217 2285.6 218.398 2285.6 216.687C2285.6 214.977 2286.92 213.908 2289.35 213.908C2291.77 213.908 2293.84 214.799 2295.02 215.44L2296.34 210.665C2294.81 209.845 2292.24 209.061 2289.24 209.061C2283.03 209.061 2279.15 212.732 2279.15 217.436C2279.08 220.572 2281.29 223.423 2286.49 225.24C2289.78 226.38 2290.88 227.307 2290.88 229.124C2290.88 230.942 2289.56 232.082 2286.6 232.082C2284.18 232.082 2281.29 231.084 2279.75 230.158L2278.43 235.04L2278.4 235.076ZM2326.87 209.667H2320.13V225.775C2320.13 226.559 2319.95 227.271 2319.74 227.841C2319.03 229.552 2317.28 231.476 2314.57 231.476C2311 231.476 2309.57 228.625 2309.57 224.171V209.631H2302.83V225.311C2302.83 234.042 2307.29 236.929 2312.18 236.929C2317.06 236.929 2319.6 234.185 2320.74 232.26H2320.85L2321.17 236.323H2327.09C2326.98 234.113 2326.87 231.512 2326.87 228.305V209.596V209.667ZM2334.19 236.394H2341V197.444H2334.19V236.394Z" fill="#0DB09E"/>
</g>
</g>
<defs>
<clipPath id="clip0_1927_319">
<rect width="935" height="313" fill="white" transform="translate(1541 2)"/>
</clipPath>
<clipPath id="clip1_1927_319">
<rect width="500" height="147" fill="white" transform="translate(1841 90)"/>
</clipPath>
</defs>
</svg>
