<svg width="2480" height="122" viewBox="0 0 2480 122" fill="none" xmlns="http://www.w3.org/2000/svg">
<path d="M3.54785 2.97083H1572.28C1580.89 2.97083 1588.88 6.81303 1593.19 13.0715L1659.28 108.889C1663.58 115.147 1671.58 118.99 1680.19 118.99H2476.45" stroke="#00A295" stroke-width="1.5" stroke-linecap="round" stroke-linejoin="round"/>
<path d="M2158.11 88.128C2157.17 88.128 2156.38 88.0427 2155.74 87.872C2155.1 87.6587 2154.7 87.296 2154.53 86.784L2140.7 45.632C2140.66 45.4187 2140.6 45.2267 2140.51 45.056C2140.47 44.8427 2140.45 44.6507 2140.45 44.48C2140.45 43.5413 2141.75 43.072 2144.35 43.072H2146.59C2147.53 43.072 2148.34 43.2 2149.02 43.456C2149.71 43.712 2150.15 44.2027 2150.37 44.928L2158.3 70.336C2158.65 71.36 2158.94 72.4267 2159.2 73.536C2159.5 74.6453 2159.67 75.52 2159.71 76.16H2159.97C2160.05 75.52 2160.22 74.6453 2160.48 73.536C2160.78 72.4267 2161.08 71.36 2161.38 70.336L2169.57 44.928C2169.78 44.2453 2170.23 43.776 2170.91 43.52C2171.59 43.2213 2172.41 43.072 2173.34 43.072H2175.2C2177.76 43.072 2179.04 43.5413 2179.04 44.48C2179.04 44.7787 2178.98 45.1627 2178.85 45.632L2165.02 86.784C2164.85 87.296 2164.45 87.6587 2163.81 87.872C2163.17 88.0427 2162.38 88.128 2161.44 88.128H2158.11ZM2198.7 88.512C2195.24 88.512 2192.79 87.616 2191.34 85.824C2189.93 83.9893 2189.23 81.7707 2189.23 79.168C2189.23 77.8453 2189.42 76.5013 2189.8 75.136C2190.23 73.728 2191.06 72.4267 2192.3 71.232C2193.53 70.0373 2195.37 69.0773 2197.8 68.352C2200.28 67.6267 2203.54 67.264 2207.59 67.264V65.152C2207.59 63.9147 2207.19 62.9973 2206.38 62.4C2205.61 61.8027 2204.35 61.504 2202.6 61.504C2201.07 61.504 2199.72 61.6747 2198.57 62.016C2197.46 62.3573 2196.54 62.6987 2195.82 63.04C2195.13 63.3813 2194.67 63.552 2194.41 63.552C2193.98 63.552 2193.49 63.232 2192.94 62.592C2192.43 61.9093 2191.98 61.1627 2191.59 60.352C2191.25 59.4987 2191.08 58.8587 2191.08 58.432C2191.08 57.7067 2191.59 57.0027 2192.62 56.32C2193.68 55.6373 2195.13 55.0827 2196.97 54.656C2198.85 54.2293 2200.96 54.016 2203.31 54.016C2206.68 54.016 2209.36 54.4853 2211.37 55.424C2213.37 56.32 2214.83 57.5787 2215.72 59.2C2216.62 60.7787 2217.07 62.6133 2217.07 64.704V76.736C2217.07 78.9547 2217.13 80.6613 2217.26 81.856C2217.39 83.008 2217.51 83.8827 2217.64 84.48C2217.77 85.0347 2217.83 85.5467 2217.83 86.016C2217.83 86.4 2217.53 86.72 2216.94 86.976C2216.38 87.232 2215.68 87.4453 2214.83 87.616C2214.01 87.7867 2213.2 87.9147 2212.39 88C2211.63 88.0427 2211.05 88.064 2210.67 88.064C2209.98 88.064 2209.47 87.8293 2209.13 87.36C2208.83 86.848 2208.62 86.2507 2208.49 85.568C2208.36 84.8427 2208.23 84.2027 2208.11 83.648C2207.98 83.904 2207.53 84.4373 2206.76 85.248C2206.04 86.016 2204.99 86.7627 2203.63 87.488C2202.3 88.1707 2200.66 88.512 2198.7 88.512ZM2201.83 81.024C2203.07 81.024 2204.2 80.64 2205.23 79.872C2206.29 79.104 2207.08 78.144 2207.59 76.992V73.472C2206.06 73.472 2204.73 73.5787 2203.63 73.792C2202.52 74.0053 2201.58 74.304 2200.81 74.688C2200.08 75.072 2199.53 75.5627 2199.15 76.16C2198.8 76.7573 2198.63 77.44 2198.63 78.208C2198.63 79.0187 2198.89 79.7013 2199.4 80.256C2199.96 80.768 2200.77 81.024 2201.83 81.024ZM2244.39 88.512C2242.9 88.512 2241.55 88.32 2240.36 87.936C2239.2 87.5093 2238.22 86.8693 2237.41 86.016C2236.64 85.1627 2236.05 84.096 2235.62 82.816C2235.24 81.4933 2235.04 79.936 2235.04 78.144V41.792C2235.04 40.4267 2236.32 39.744 2238.88 39.744H2240.68C2243.24 39.744 2244.52 40.4267 2244.52 41.792V78.272C2244.52 79.2107 2244.69 79.9147 2245.03 80.384C2245.41 80.8107 2246.01 81.024 2246.82 81.024C2247.12 81.024 2247.44 80.9813 2247.78 80.896C2248.12 80.8107 2248.38 80.768 2248.55 80.768C2248.98 80.768 2249.34 81.1307 2249.64 81.856C2249.94 82.5387 2250.15 83.264 2250.28 84.032C2250.45 84.7573 2250.53 85.2053 2250.53 85.376C2250.53 86.3573 2250.15 87.0827 2249.38 87.552C2248.66 87.9787 2247.8 88.2347 2246.82 88.32C2245.88 88.448 2245.07 88.512 2244.39 88.512ZM2275.73 88.512C2270.65 88.512 2266.79 87.0187 2264.14 84.032C2261.5 81.0453 2260.18 76.7787 2260.18 71.232C2260.18 65.6427 2261.5 61.376 2264.14 58.432C2266.79 55.488 2270.65 54.016 2275.73 54.016C2280.8 54.016 2284.64 55.488 2287.25 58.432C2289.89 61.376 2291.22 65.6427 2291.22 71.232C2291.22 76.7787 2289.89 81.0453 2287.25 84.032C2284.64 87.0187 2280.8 88.512 2275.73 88.512ZM2275.73 81.024C2277.78 81.024 2279.27 80.192 2280.21 78.528C2281.15 76.864 2281.62 74.432 2281.62 71.232C2281.62 68.032 2281.15 65.6213 2280.21 64C2279.27 62.336 2277.78 61.504 2275.73 61.504C2273.68 61.504 2272.16 62.336 2271.18 64C2270.24 65.6213 2269.78 68.032 2269.78 71.232C2269.78 74.432 2270.24 76.864 2271.18 78.528C2272.16 80.192 2273.68 81.024 2275.73 81.024ZM2311.33 88.128C2308.77 88.128 2307.49 87.4453 2307.49 86.08V65.792C2307.49 63.6587 2307.43 62.016 2307.3 60.864C2307.17 59.712 2307.04 58.8587 2306.92 58.304C2306.79 57.7067 2306.72 57.1947 2306.72 56.768C2306.72 56.384 2307 56.064 2307.56 55.808C2308.15 55.552 2308.86 55.3387 2309.67 55.168C2310.52 54.9973 2311.33 54.8907 2312.1 54.848C2312.91 54.7627 2313.51 54.72 2313.89 54.72C2314.58 54.72 2315.07 54.9547 2315.36 55.424C2315.71 55.8933 2315.94 56.448 2316.07 57.088C2316.2 57.728 2316.32 58.3253 2316.45 58.88C2317.14 57.6427 2318.01 56.5333 2319.08 55.552C2320.14 54.528 2321.59 54.016 2323.43 54.016C2325.01 54.016 2326.01 54.336 2326.44 54.976C2326.86 55.616 2327.08 56.448 2327.08 57.472C2327.08 57.856 2326.99 58.496 2326.82 59.392C2326.69 60.2453 2326.48 61.0347 2326.18 61.76C2325.88 62.4853 2325.52 62.848 2325.09 62.848C2324.67 62.848 2324.22 62.7627 2323.75 62.592C2323.28 62.4213 2322.72 62.336 2322.08 62.336C2321.23 62.336 2320.46 62.528 2319.78 62.912C2319.1 63.2533 2318.52 63.68 2318.05 64.192C2317.58 64.6613 2317.22 65.1093 2316.96 65.536V86.08C2316.96 87.4453 2315.68 88.128 2313.12 88.128H2311.33Z" fill="#003540"/>
<path d="M123.048 77.312C121.939 77.312 121.085 76.9067 120.488 76.096L112.616 62.016C112.36 61.5893 112.104 61.184 111.848 60.8C111.635 60.3733 111.421 59.9467 111.208 59.52L110.952 59.584C110.952 60.096 110.952 60.608 110.952 61.12C110.952 61.632 110.952 62.1653 110.952 62.72V86.08C110.952 87.4453 109.672 88.128 107.112 88.128H105.256C102.696 88.128 101.416 87.4453 101.416 86.08V45.12C101.416 43.7547 102.696 43.072 105.256 43.072H108.648C109.587 43.072 110.397 43.2 111.08 43.456C111.805 43.712 112.339 44.16 112.68 44.8L123.304 63.744C123.389 63.9147 123.496 64.0853 123.624 64.256C123.752 64.4267 123.859 64.6187 123.944 64.832C124.029 64.6187 124.115 64.4267 124.2 64.256C124.328 64.0853 124.435 63.9147 124.52 63.744L135.336 44.8C135.677 44.16 136.189 43.712 136.872 43.456C137.597 43.2 138.429 43.072 139.368 43.072H142.696C145.256 43.072 146.536 43.7547 146.536 45.12V86.08C146.536 87.4453 145.256 88.128 142.696 88.128H140.84C138.28 88.128 137 87.4453 137 86.08V62.72C137 62.1653 137 61.632 137 61.12C137 60.608 137 60.096 137 59.584L136.744 59.52C136.531 59.9467 136.296 60.3733 136.04 60.8C135.827 61.184 135.592 61.5893 135.336 62.016L127.464 76.096C126.867 76.9067 126.013 77.312 124.904 77.312H123.048ZM178.778 88.512C173.7 88.512 169.839 87.0187 167.193 84.032C164.548 81.0453 163.225 76.7787 163.225 71.232C163.225 65.6427 164.548 61.376 167.193 58.432C169.839 55.488 173.7 54.016 178.778 54.016C183.855 54.016 187.695 55.488 190.298 58.432C192.943 61.376 194.265 65.6427 194.265 71.232C194.265 76.7787 192.943 81.0453 190.298 84.032C187.695 87.0187 183.855 88.512 178.778 88.512ZM178.778 81.024C180.825 81.024 182.319 80.192 183.257 78.528C184.196 76.864 184.665 74.432 184.665 71.232C184.665 68.032 184.196 65.6213 183.257 64C182.319 62.336 180.825 61.504 178.778 61.504C176.729 61.504 175.215 62.336 174.233 64C173.295 65.6213 172.825 68.032 172.825 71.232C172.825 74.432 173.295 76.864 174.233 78.528C175.215 80.192 176.729 81.024 178.778 81.024ZM221.231 88.512C218.927 88.512 216.879 87.8507 215.087 86.528C213.295 85.2053 211.866 83.264 210.799 80.704C209.775 78.1013 209.263 74.944 209.263 71.232C209.263 66.0267 210.436 61.8667 212.783 58.752C215.13 55.5947 218.458 54.016 222.767 54.016C224.26 54.016 225.54 54.2293 226.607 54.656C227.716 55.0827 228.612 55.5307 229.295 56V41.792C229.295 40.4267 230.575 39.744 233.135 39.744H234.927C237.487 39.744 238.767 40.4267 238.767 41.792V76.736C238.767 78.9547 238.831 80.6613 238.959 81.856C239.087 83.008 239.215 83.8827 239.343 84.48C239.471 85.0347 239.535 85.5467 239.535 86.016C239.535 86.4 239.236 86.72 238.639 86.976C238.084 87.232 237.38 87.4453 236.527 87.616C235.716 87.7867 234.906 87.9147 234.095 88C233.327 88.0427 232.751 88.064 232.367 88.064C231.684 88.064 231.172 87.8293 230.831 87.36C230.532 86.848 230.319 86.2507 230.191 85.568C230.063 84.8853 229.935 84.2667 229.807 83.712C229.082 85.0773 227.972 86.2293 226.479 87.168C224.986 88.064 223.236 88.512 221.231 88.512ZM224.047 80.768C225.284 80.768 226.33 80.384 227.183 79.616C228.036 78.848 228.74 77.9733 229.295 76.992V62.72C228.783 62.4213 228.143 62.144 227.375 61.888C226.65 61.632 225.796 61.504 224.815 61.504C222.81 61.504 221.316 62.336 220.335 64C219.354 65.6213 218.863 68.032 218.863 71.232C218.863 74.3467 219.29 76.7147 220.143 78.336C220.996 79.9573 222.298 80.768 224.047 80.768ZM264.523 88.512C261.067 88.512 258.613 87.616 257.163 85.824C255.755 83.9893 255.051 81.7707 255.051 79.168C255.051 77.8453 255.243 76.5013 255.627 75.136C256.053 73.728 256.885 72.4267 258.123 71.232C259.36 70.0373 261.195 69.0773 263.627 68.352C266.101 67.6267 269.365 67.264 273.419 67.264V65.152C273.419 63.9147 273.013 62.9973 272.203 62.4C271.435 61.8027 270.176 61.504 268.427 61.504C266.891 61.504 265.547 61.6747 264.395 62.016C263.285 62.3573 262.368 62.6987 261.643 63.04C260.96 63.3813 260.491 63.552 260.235 63.552C259.808 63.552 259.317 63.232 258.763 62.592C258.251 61.9093 257.803 61.1627 257.419 60.352C257.077 59.4987 256.907 58.8587 256.907 58.432C256.907 57.7067 257.419 57.0027 258.443 56.32C259.509 55.6373 260.96 55.0827 262.795 54.656C264.672 54.2293 266.784 54.016 269.131 54.016C272.501 54.016 275.189 54.4853 277.195 55.424C279.2 56.32 280.651 57.5787 281.547 59.2C282.443 60.7787 282.891 62.6133 282.891 64.704V76.736C282.891 78.9547 282.955 80.6613 283.083 81.856C283.211 83.008 283.339 83.8827 283.467 84.48C283.595 85.0347 283.659 85.5467 283.659 86.016C283.659 86.4 283.36 86.72 282.763 86.976C282.208 87.232 281.504 87.4453 280.651 87.616C279.84 87.7867 279.029 87.9147 278.219 88C277.451 88.0427 276.875 88.064 276.491 88.064C275.808 88.064 275.296 87.8293 274.955 87.36C274.656 86.848 274.443 86.2507 274.315 85.568C274.187 84.8427 274.059 84.2027 273.931 83.648C273.803 83.904 273.355 84.4373 272.587 85.248C271.861 86.016 270.816 86.7627 269.451 87.488C268.128 88.1707 266.485 88.512 264.523 88.512ZM267.659 81.024C268.896 81.024 270.027 80.64 271.051 79.872C272.117 79.104 272.907 78.144 273.419 76.992V73.472C271.883 73.472 270.56 73.5787 269.451 73.792C268.341 74.0053 267.403 74.304 266.635 74.688C265.909 75.072 265.355 75.5627 264.971 76.16C264.629 76.7573 264.459 77.44 264.459 78.208C264.459 79.0187 264.715 79.7013 265.227 80.256C265.781 80.768 266.592 81.024 267.659 81.024ZM310.213 88.512C308.72 88.512 307.376 88.32 306.181 87.936C305.029 87.5093 304.048 86.8693 303.237 86.016C302.469 85.1627 301.872 84.096 301.445 82.816C301.061 81.4933 300.869 79.936 300.869 78.144V41.792C300.869 40.4267 302.149 39.744 304.709 39.744H306.501C309.061 39.744 310.341 40.4267 310.341 41.792V78.272C310.341 79.2107 310.512 79.9147 310.853 80.384C311.237 80.8107 311.835 81.024 312.645 81.024C312.944 81.024 313.264 80.9813 313.605 80.896C313.947 80.8107 314.203 80.768 314.373 80.768C314.8 80.768 315.163 81.1307 315.461 81.856C315.76 82.5387 315.973 83.264 316.101 84.032C316.272 84.7573 316.357 85.2053 316.357 85.376C316.357 86.3573 315.973 87.0827 315.205 87.552C314.48 87.9787 313.627 88.2347 312.645 88.32C311.707 88.448 310.896 88.512 310.213 88.512ZM333.054 88.128C330.494 88.128 329.214 87.4453 329.214 86.08V56.448C329.214 55.0827 330.494 54.4 333.054 54.4H334.845C337.406 54.4 338.686 55.0827 338.686 56.448V86.08C338.686 87.4453 337.406 88.128 334.845 88.128H333.054ZM333.95 51.264C332.286 51.264 331.07 51.0933 330.302 50.752C329.576 50.4107 329.214 49.8987 329.214 49.216V44.224C329.214 43.5413 329.576 43.0293 330.302 42.688C331.07 42.3467 332.286 42.176 333.95 42.176C335.614 42.176 336.808 42.3467 337.534 42.688C338.302 43.0293 338.686 43.5413 338.686 44.224V49.216C338.686 49.8987 338.302 50.4107 337.534 50.752C336.808 51.0933 335.614 51.264 333.95 51.264ZM366.631 88.512C364.327 88.512 362.279 87.8507 360.487 86.528C358.695 85.2053 357.266 83.264 356.199 80.704C355.175 78.1013 354.663 74.944 354.663 71.232C354.663 66.0267 355.836 61.8667 358.183 58.752C360.53 55.5947 363.858 54.016 368.167 54.016C369.66 54.016 370.94 54.2293 372.007 54.656C373.116 55.0827 374.012 55.5307 374.695 56V41.792C374.695 40.4267 375.975 39.744 378.535 39.744H380.327C382.887 39.744 384.167 40.4267 384.167 41.792V76.736C384.167 78.9547 384.231 80.6613 384.359 81.856C384.487 83.008 384.615 83.8827 384.743 84.48C384.871 85.0347 384.935 85.5467 384.935 86.016C384.935 86.4 384.636 86.72 384.039 86.976C383.484 87.232 382.78 87.4453 381.927 87.616C381.116 87.7867 380.306 87.9147 379.495 88C378.727 88.0427 378.151 88.064 377.767 88.064C377.084 88.064 376.572 87.8293 376.231 87.36C375.932 86.848 375.719 86.2507 375.591 85.568C375.463 84.8853 375.335 84.2667 375.207 83.712C374.482 85.0773 373.372 86.2293 371.879 87.168C370.386 88.064 368.636 88.512 366.631 88.512ZM369.447 80.768C370.684 80.768 371.73 80.384 372.583 79.616C373.436 78.848 374.14 77.9733 374.695 76.992V62.72C374.183 62.4213 373.543 62.144 372.775 61.888C372.05 61.632 371.196 61.504 370.215 61.504C368.21 61.504 366.716 62.336 365.735 64C364.754 65.6213 364.263 68.032 364.263 71.232C364.263 74.3467 364.69 76.7147 365.543 78.336C366.396 79.9573 367.698 80.768 369.447 80.768ZM409.923 88.512C406.467 88.512 404.013 87.616 402.563 85.824C401.155 83.9893 400.451 81.7707 400.451 79.168C400.451 77.8453 400.643 76.5013 401.027 75.136C401.453 73.728 402.285 72.4267 403.523 71.232C404.76 70.0373 406.595 69.0773 409.027 68.352C411.501 67.6267 414.765 67.264 418.819 67.264V65.152C418.819 63.9147 418.413 62.9973 417.603 62.4C416.835 61.8027 415.576 61.504 413.827 61.504C412.291 61.504 410.947 61.6747 409.795 62.016C408.685 62.3573 407.768 62.6987 407.043 63.04C406.36 63.3813 405.891 63.552 405.635 63.552C405.208 63.552 404.717 63.232 404.163 62.592C403.651 61.9093 403.203 61.1627 402.819 60.352C402.477 59.4987 402.307 58.8587 402.307 58.432C402.307 57.7067 402.819 57.0027 403.843 56.32C404.909 55.6373 406.36 55.0827 408.195 54.656C410.072 54.2293 412.184 54.016 414.531 54.016C417.901 54.016 420.589 54.4853 422.595 55.424C424.6 56.32 426.051 57.5787 426.947 59.2C427.843 60.7787 428.291 62.6133 428.291 64.704V76.736C428.291 78.9547 428.355 80.6613 428.483 81.856C428.611 83.008 428.739 83.8827 428.867 84.48C428.995 85.0347 429.059 85.5467 429.059 86.016C429.059 86.4 428.76 86.72 428.163 86.976C427.608 87.232 426.904 87.4453 426.051 87.616C425.24 87.7867 424.429 87.9147 423.619 88C422.851 88.0427 422.275 88.064 421.891 88.064C421.208 88.064 420.696 87.8293 420.355 87.36C420.056 86.848 419.843 86.2507 419.715 85.568C419.587 84.8427 419.459 84.2027 419.331 83.648C419.203 83.904 418.755 84.4373 417.987 85.248C417.261 86.016 416.216 86.7627 414.851 87.488C413.528 88.1707 411.885 88.512 409.923 88.512ZM413.059 81.024C414.296 81.024 415.427 80.64 416.451 79.872C417.517 79.104 418.307 78.144 418.819 76.992V73.472C417.283 73.472 415.96 73.5787 414.851 73.792C413.741 74.0053 412.803 74.304 412.035 74.688C411.309 75.072 410.755 75.5627 410.371 76.16C410.029 76.7573 409.859 77.44 409.859 78.208C409.859 79.0187 410.115 79.7013 410.627 80.256C411.181 80.768 411.992 81.024 413.059 81.024ZM456.893 88.512C454.589 88.512 452.541 87.8507 450.749 86.528C448.957 85.2053 447.528 83.264 446.461 80.704C445.437 78.1013 444.925 74.944 444.925 71.232C444.925 66.0267 446.099 61.8667 448.445 58.752C450.792 55.5947 454.12 54.016 458.429 54.016C459.923 54.016 461.203 54.2293 462.269 54.656C463.379 55.0827 464.275 55.5307 464.957 56V41.792C464.957 40.4267 466.237 39.744 468.797 39.744H470.589C473.149 39.744 474.429 40.4267 474.429 41.792V76.736C474.429 78.9547 474.493 80.6613 474.621 81.856C474.749 83.008 474.877 83.8827 475.005 84.48C475.133 85.0347 475.197 85.5467 475.197 86.016C475.197 86.4 474.899 86.72 474.301 86.976C473.747 87.232 473.043 87.4453 472.189 87.616C471.379 87.7867 470.568 87.9147 469.757 88C468.989 88.0427 468.413 88.064 468.029 88.064C467.347 88.064 466.835 87.8293 466.493 87.36C466.195 86.848 465.981 86.2507 465.853 85.568C465.725 84.8853 465.597 84.2667 465.469 83.712C464.744 85.0773 463.635 86.2293 462.141 87.168C460.648 88.064 458.899 88.512 456.893 88.512ZM459.709 80.768C460.947 80.768 461.992 80.384 462.845 79.616C463.699 78.848 464.403 77.9733 464.957 76.992V62.72C464.445 62.4213 463.805 62.144 463.037 61.888C462.312 61.632 461.459 61.504 460.477 61.504C458.472 61.504 456.979 62.336 455.997 64C455.016 65.6213 454.525 68.032 454.525 71.232C454.525 74.3467 454.952 76.7147 455.805 78.336C456.659 79.9573 457.96 80.768 459.709 80.768ZM507.417 88.512C501.614 88.512 497.369 86.976 494.681 83.904C492.036 80.7893 490.713 76.6507 490.713 71.488C490.713 67.264 491.374 63.872 492.697 61.312C494.02 58.752 495.854 56.896 498.201 55.744C500.548 54.592 503.236 54.016 506.265 54.016C509.636 54.016 512.324 54.784 514.329 56.32C516.334 57.8133 517.785 59.8187 518.681 62.336C519.62 64.8107 520.089 67.5413 520.089 70.528C520.089 70.8693 519.876 71.36 519.449 72C519.022 72.5973 518.553 73.1307 518.041 73.6C517.529 74.0693 517.124 74.304 516.825 74.304H500.505C500.718 76.864 501.465 78.6347 502.745 79.616C504.068 80.5547 505.774 81.024 507.865 81.024C509.23 81.024 510.425 80.8533 511.449 80.512C512.516 80.1707 513.39 79.8507 514.073 79.552C514.798 79.2107 515.31 79.04 515.609 79.04C516.078 79.04 516.569 79.36 517.081 80C517.593 80.64 518.02 81.344 518.361 82.112C518.745 82.88 518.937 83.4773 518.937 83.904C518.937 84.7147 518.51 85.4187 517.657 86.016C516.846 86.5707 515.801 87.04 514.521 87.424C513.284 87.808 512.004 88.0853 510.681 88.256C509.401 88.4267 508.313 88.512 507.417 88.512ZM500.505 67.968H510.873C510.873 66.0907 510.51 64.5547 509.785 63.36C509.06 62.1227 507.886 61.504 506.265 61.504C504.942 61.504 503.748 61.9733 502.681 62.912C501.614 63.808 500.889 65.4933 500.505 67.968ZM544.541 88.512C542.962 88.512 541.341 88.3413 539.677 88C538.056 87.6587 536.69 87.168 535.581 86.528C534.472 85.8453 533.917 85.056 533.917 84.16C533.917 83.6053 534.109 82.944 534.493 82.176C534.877 81.408 535.325 80.7253 535.837 80.128C536.392 79.5307 536.882 79.232 537.309 79.232C537.65 79.232 538.098 79.3813 538.653 79.68C539.25 79.9787 539.976 80.2773 540.829 80.576C541.682 80.8747 542.664 81.024 543.773 81.024C546.376 81.024 547.677 80.128 547.677 78.336C547.677 77.3547 547.186 76.608 546.205 76.096C545.224 75.584 543.986 75.008 542.493 74.368C541.469 73.8987 540.338 73.3227 539.101 72.64C537.906 71.9573 536.861 70.976 535.965 69.696C535.112 68.416 534.685 66.688 534.685 64.512C534.685 62.2933 535.154 60.416 536.093 58.88C537.074 57.3013 538.44 56.1067 540.189 55.296C541.938 54.4427 543.986 54.016 546.333 54.016C547.57 54.016 548.936 54.144 550.429 54.4C551.922 54.6133 553.202 54.9973 554.269 55.552C555.378 56.1067 555.933 56.832 555.933 57.728C555.933 58.1973 555.784 58.8373 555.485 59.648C555.186 60.4587 554.824 61.184 554.397 61.824C554.013 62.464 553.608 62.784 553.181 62.784C552.84 62.784 552.2 62.5707 551.261 62.144C550.322 61.6747 549.064 61.44 547.485 61.44C546.418 61.44 545.586 61.632 544.989 62.016C544.392 62.3573 544.093 62.9547 544.093 63.808C544.093 64.8747 544.584 65.664 545.565 66.176C546.546 66.6453 547.826 67.1787 549.405 67.776C550.472 68.16 551.581 68.6933 552.733 69.376C553.928 70.0587 554.952 71.0613 555.805 72.384C556.658 73.664 557.085 75.392 557.085 77.568C557.085 79.744 556.594 81.664 555.613 83.328C554.632 84.9493 553.202 86.2293 551.325 87.168C549.49 88.064 547.229 88.512 544.541 88.512Z" fill="#003540"/>
</svg>
